<?xml version="1.0" standalone="no"?>
<!DOCTYPE svg PUBLIC "-//W3C//DTD SVG 20010904//EN"
 "http://www.w3.org/TR/2001/REC-SVG-20010904/DTD/svg10.dtd">
<svg version="1.0" xmlns="http://www.w3.org/2000/svg"
 width="310.000000pt" height="310.000000pt" viewBox="0 0 310.000000 310.000000"
 preserveAspectRatio="xMidYMid meet">

<g transform="translate(0.000000,310.000000) scale(0.100000,-0.100000)"
fill="#000000" stroke="none">
<path d="M790 2589 c-14 -6 -36 -20 -48 -32 -50 -47 -52 -59 -52 -337 l0 -261
43 3 42 3 5 253 c5 236 6 255 24 268 17 12 103 14 512 14 l493 0 3 -153 c3
-150 4 -155 31 -194 43 -62 62 -67 242 -73 l160 -5 3 -57 3 -58 44 0 45 0 0
80 c0 95 21 67 -267 357 l-203 203 -527 -1 c-326 0 -538 -4 -553 -10z"/>
<path d="M1071 1896 c-34 -19 -50 -54 -51 -109 0 -52 20 -101 45 -111 48 -18
107 4 118 44 8 30 -19 37 -47 11 -28 -26 -42 -27 -56 -2 -14 27 -13 104 2 119
18 18 42 15 56 -8 17 -28 42 -26 42 3 0 46 -65 78 -109 53z"/>
<path d="M1455 1901 c-96 -40 -73 -231 27 -231 67 0 106 61 94 144 -10 66 -69
108 -121 87z m65 -67 c15 -40 12 -80 -9 -105 -16 -19 -23 -22 -37 -13 -28 17
-38 61 -25 105 10 32 16 39 37 39 17 0 27 -8 34 -26z"/>
<path d="M2061 1896 c-34 -19 -50 -54 -51 -109 0 -78 28 -117 85 -117 37 0 55
10 70 40 23 44 -12 58 -45 18 -15 -19 -22 -21 -37 -12 -14 9 -18 24 -18 69 0
45 4 60 18 69 15 9 22 7 37 -11 24 -30 50 -30 50 0 0 46 -65 78 -109 53z"/>
<path d="M682 1788 l3 -113 51 0 c29 1 59 7 68 14 19 16 21 72 4 89 -9 9 -9
15 0 24 7 7 12 24 12 39 0 38 -33 59 -93 59 l-48 0 3 -112z m86 49 c4 -20 -25
-34 -40 -19 -15 15 -1 44 19 40 10 -2 19 -11 21 -21z m1 -81 c9 -11 8 -18 -4
-30 -20 -20 -31 -20 -39 -1 -13 36 19 60 43 31z"/>
<path d="M876 1818 c-41 -133 -42 -148 -17 -148 14 0 25 9 31 25 13 33 43 32
68 -2 13 -18 25 -24 36 -20 19 8 17 18 -23 142 -22 64 -31 81 -48 83 -19 3
-25 -6 -47 -80z m64 -45 c0 -7 -7 -13 -15 -13 -15 0 -21 31 -8 43 8 8 23 -12
23 -30z"/>
<path d="M1220 1790 c0 -91 3 -112 15 -117 20 -7 27 0 30 29 1 13 3 29 4 36 2
24 21 11 41 -28 19 -37 45 -51 63 -34 3 4 -7 33 -24 66 l-30 59 25 44 c32 53
32 57 4 53 -13 -2 -32 -17 -43 -35 -23 -38 -47 -43 -45 -10 4 39 0 47 -20 47
-19 0 -20 -7 -20 -110z"/>
<path d="M1614 1887 c-2 -7 -3 -58 -2 -113 3 -91 5 -99 23 -99 16 0 21 8 23
43 3 39 5 42 33 42 18 0 32 6 36 16 7 19 -13 34 -45 34 -18 0 -23 5 -20 23 2
18 10 23 41 25 29 3 37 7 37 23 0 17 -7 19 -60 19 -41 0 -62 -4 -66 -13z"/>
<path d="M1774 1887 c-2 -7 -3 -58 -2 -113 3 -91 5 -99 23 -99 16 0 21 8 23
43 3 39 5 42 33 42 18 0 32 6 36 16 7 19 -13 34 -45 34 -18 0 -23 5 -20 23 2
18 10 23 41 25 30 3 37 7 35 20 -4 23 -115 31 -124 9z"/>
<path d="M1924 1887 c-2 -7 -3 -58 -2 -113 3 -94 4 -99 26 -102 22 -3 22 -2
22 112 0 110 -1 116 -20 116 -11 0 -23 -6 -26 -13z"/>
<path d="M2212 1788 l3 -113 60 0 c49 0 60 3 63 18 3 13 -4 17 -31 17 -42 0
-66 23 -47 45 7 8 23 15 36 15 17 0 24 6 24 20 0 15 -7 20 -29 20 -16 0 -31 6
-33 13 -10 25 4 37 44 37 32 0 39 3 36 18 -3 14 -16 18 -66 20 l-63 3 3 -113z"/>
<path d="M1728 1597 c-79 -29 -131 -65 -183 -127 -138 -164 -118 -415 46 -564
84 -75 154 -101 279 -101 87 0 101 3 168 34 l73 34 133 -131 c126 -125 153
-144 182 -124 19 12 34 50 28 69 -4 10 -63 75 -132 145 l-126 127 32 63 c107
215 22 458 -196 561 -91 43 -209 48 -304 14z m231 -92 c109 -38 181 -120 207
-234 14 -63 14 -74 0 -131 -47 -184 -236 -284 -412 -219 -118 44 -204 166
-204 289 0 37 21 114 40 150 26 48 88 105 145 132 69 32 155 38 224 13z"/>
<path d="M690 1111 l0 -498 23 -33 c12 -18 35 -43 50 -54 28 -21 36 -21 715
-24 378 -2 702 0 720 3 38 7 102 60 102 84 0 17 -39 61 -54 61 -4 0 -18 -12
-31 -27 l-23 -28 -682 0 -682 0 -24 28 -24 28 0 480 0 479 -45 0 -45 0 0 -499z"/>
<path d="M2250 1551 c0 -45 7 -71 28 -113 16 -29 31 -64 35 -77 3 -12 10 -20
15 -17 11 7 16 223 6 249 -4 12 -18 17 -45 17 l-39 0 0 -59z"/>
<path d="M907 1384 c-15 -15 -7 -63 12 -74 12 -6 102 -10 223 -10 226 0 242 4
236 55 l-3 30 -231 3 c-127 1 -233 -1 -237 -4z"/>
<path d="M907 1173 c-14 -13 -7 -71 9 -77 22 -9 437 -7 450 2 19 13 23 39 8
61 -15 20 -22 21 -238 21 -122 0 -226 -3 -229 -7z"/>
<path d="M918 959 c-21 -12 -24 -59 -6 -77 9 -9 73 -12 225 -12 200 0 214 1
233 20 11 11 20 25 20 30 0 5 -9 19 -20 30 -19 19 -33 20 -227 20 -123 0 -215
-5 -225 -11z"/>
</g>
</svg>
